<?xml version="1.0" encoding="UTF-8"?>
<svg width="38px" height="34px" viewBox="0 0 38 34" version="1.1" xmlns="http://www.w3.org/2000/svg" xmlns:xlink="http://www.w3.org/1999/xlink">
    <title>icon_logistics_delivered</title>
    <g id="订单详情" stroke="none" stroke-width="1" fill="none" fill-rule="evenodd">
        <g id="08-订单详情-待收货-查看物流展开" transform="translate(-71.000000, -1267.000000)">
            <g id="收货地址栏备份-6" transform="translate(30.000000, 1244.000000)">
                <g id="icon_logistics_delivered" transform="translate(41.000000, 23.000000)">
                    <rect id="矩形" x="2" y="0" width="34" height="34"></rect>
                    <g id="已发货" transform="translate(2.000000, 5.000000)" fill="#CCCCCC">
                        <path d="M29.9020078,7.45239663 L29.9020078,19.831344 C29.9020078,21.784688 28.2605768,23.3681861 26.235769,23.3681861 L7.90457517,23.3681861 C5.87976741,23.3681861 4.2383364,21.784688 4.2383364,19.831344 L4.2383364,7.45239663 L29.9020078,7.45239663 Z M21.9974326,13.2631579 L12.8318357,13.2631579 L12.8318357,15.0315789 L21.9974326,15.0315789 L21.9974326,13.2631579 Z" id="形状结合"></path>
                        <polygon id="路径" fill-rule="nonzero" points="11.0732243 1.72546481 23.5158438 1.72546481 28.8039828 7.34544977 27.34742 8.71600617 22.651 3.725 11.931 3.725 7.19147906 8.71922593 5.7410025 7.34223001"></polygon>
                        <polygon id="路径-13" fill-rule="nonzero" points="22.6577136 1.82073556 29.1025126 -1.21376451 35.6252042 5.70924939 28.5276337 8.9408327 27.6988771 7.12062324 32.253 5.046 28.642 1.213 23.5096878 3.63019406"></polygon>
                        <polygon id="路径-13备份-2" fill-rule="nonzero" points="-1.40145935 5.70924939 5.12123228 -1.21376451 11.5660312 1.82073556 10.7140571 3.63019406 5.581 1.213 1.97 5.046 6.52486774 7.12062324 5.69611112 8.9408327"></polygon>
                    </g>
                </g>
            </g>
        </g>
    </g>
</svg>