<?xml version="1.0" encoding="UTF-8"?>
<svg width="68px" height="69px" viewBox="0 0 68 69" version="1.1" xmlns="http://www.w3.org/2000/svg" xmlns:xlink="http://www.w3.org/1999/xlink">
    <title>icon_successful</title>
    <g id="订单详情" stroke="none" stroke-width="1" fill="none" fill-rule="evenodd">
        <g id="10-订单详情-待评价" transform="translate(-30.000000, -190.000000)">
            <g id="等待付款" transform="translate(0.000000, 148.000000)">
                <g id="icon_successful" transform="translate(30.000000, 42.000000)">
                    <circle id="椭圆形" fill="#E8B759" cx="34" cy="34" r="34"></circle>
                    <path d="M34,16 C45.045695,16 54,20.954305 54,32 C54,38.8582885 50.2172201,43.9553186 38.6516603,47.2910903 C38.083347,47.4550048 36.5327935,49.1123534 34,52.263136 C31.4675732,49.1124514 29.917285,47.4551794 29.3491355,47.2913198 C17.7830452,43.9555524 14,38.8584458 14,32 C14,20.954305 22.954305,16 34,16 Z M22.6666667,28 C20.8257175,28 19.3333333,29.4923842 19.3333333,31.3333333 C19.3333333,33.1742825 20.8257175,34.6666667 22.6666667,34.6666667 C24.5076158,34.6666667 26,33.1742825 26,31.3333333 C26,29.4923842 24.5076158,28 22.6666667,28 Z M34.6666667,28 C32.8257175,28 31.3333333,29.4923842 31.3333333,31.3333333 C31.3333333,33.1742825 32.8257175,34.6666667 34.6666667,34.6666667 C36.5076158,34.6666667 38,33.1742825 38,31.3333333 C38,29.4923842 36.5076158,28 34.6666667,28 Z M45.3333333,28 C43.4923842,28 42,29.4923842 42,31.3333333 C42,33.1742825 43.4923842,34.6666667 45.3333333,34.6666667 C47.1742825,34.6666667 48.6666667,33.1742825 48.6666667,31.3333333 C48.6666667,29.4923842 47.1742825,28 45.3333333,28 Z" id="形状结合" fill="#FFFFFF"></path>
                </g>
            </g>
        </g>
    </g>
</svg>