<?xml version="1.0" encoding="UTF-8"?>
<svg width="34px" height="34px" viewBox="0 0 34 34" version="1.1" xmlns="http://www.w3.org/2000/svg" xmlns:xlink="http://www.w3.org/1999/xlink">
    <title>icon_logistics_transport</title>
    <g id="订单详情" stroke="none" stroke-width="1" fill="none" fill-rule="evenodd">
        <g id="08-订单详情-待收货-查看物流展开" transform="translate(-73.000000, -725.000000)">
            <g id="收货地址栏备份-2" transform="translate(30.000000, 702.000000)">
                <g id="icon_logistics_transport" transform="translate(43.000000, 23.000000)">
                    <rect id="矩形" x="0" y="0" width="34" height="34"></rect>
                    <g id="编组-7" transform="translate(2.000000, 5.000000)" fill="#CCCCCC">
                        <path d="M28,0 C29.1045695,-2.02906125e-16 30,0.8954305 30,2 L30,19 C30,20.1045695 29.1045695,21 28,21 L24.6748783,21.0005323 C24.7241395,20.7580348 24.75,20.5070374 24.75,20.25 C24.75,18.1789322 23.0710678,16.5 21,16.5 C18.9289322,16.5 17.25,18.1789322 17.25,20.25 C17.25,20.5070374 17.2758605,20.7580348 17.3251217,21.0005323 L12.6748783,21.0005323 C12.7241395,20.7580348 12.75,20.5070374 12.75,20.25 C12.75,18.1789322 11.0710678,16.5 9,16.5 C6.92893219,16.5 5.25,18.1789322 5.25,20.25 C5.25,20.5070374 5.27586052,20.7580348 5.32512168,21.0005323 L2,21 C0.8954305,21 1.3527075e-16,20.1045695 0,19 L0,9.89677611 C3.28890221e-16,8.95610498 0.655519345,8.14257146 1.5746731,7.94252509 L10.5,6 L10.5,2 C10.5,0.8954305 11.3954305,2.02906125e-16 12.5,0 L28,0 Z M6.75,9.75 L2.33890067,10.47003 C1.89240607,10.542912 1.55540625,10.9045805 1.50620211,11.3452708 L1.5,11.4569682 L1.5,13.5 L6.75,13.5 L6.75,9.75 Z" id="形状结合"></path>
                        <path d="M9,17.25 C10.6568542,17.25 12,18.5931458 12,20.25 C12,21.9068542 10.6568542,23.25 9,23.25 C7.34314575,23.25 6,21.9068542 6,20.25 C6,18.5931458 7.34314575,17.25 9,17.25 Z M21,17.25 C22.6568542,17.25 24,18.5931458 24,20.25 C24,21.9068542 22.6568542,23.25 21,23.25 C19.3431458,23.25 18,21.9068542 18,20.25 C18,18.5931458 19.3431458,17.25 21,17.25 Z" id="形状结合备份"></path>
                    </g>
                </g>
            </g>
        </g>
    </g>
</svg>